# xmcd CD database file
#
# Track frame offsets:
#	150
#	29715
#	61973
#	98387
#	107242
#	118007
#	160408
#	201860
#
# Disc length: 3204 seconds
#
# Revision: 0
# Processed by: cddbd v1.5.1PL0 Copyright (c) Steve Scherf et al.
# Submitted via: CDex 1.50
#
DISCID=6a0c8208
DTITLE=Charles Mingus and The Jazz Workshop All Stars - The Complete Birdland Broadcasts [CD3]
DYEAR=2004
DGENRE=Jazz
TTITLE0=I Can't Get Started 10-19
TTITLE1=Monk, Funk or Vice Versa 10-19
TTITLE2=Please Don't Come Back From The Moon 10-19
TTITLE3=Eat That Chicken 10-19
TTITLE4=Eat That Chicken 10-26
TTITLE5=Monk, Funk or Vice Versa 10-26
TTITLE6=O.P. 10-26
TTITLE7=The Search 10-26
EXTD=YEAR: 2004
EXTT0=
EXTT1=
EXTT2=
EXTT3=
EXTT4=
EXTT5=
EXTT6=
EXTT7=
PLAYORDER=
